<?xml version="1.0" encoding="utf-8"?>
<!-- Generator: Adobe Illustrator 26.5.0, SVG Export Plug-In . SVG Version: 6.00 Build 0)  -->
<svg version="1.1" id="Calque_1" xmlns="http://www.w3.org/2000/svg" xmlns:xlink="http://www.w3.org/1999/xlink" x="0px" y="0px"
	 viewBox="0 0 768.4 421.9" style="enable-background:new 0 0 768.4 421.9;" xml:space="preserve">
<style type="text/css">
	.st0{fill:#5D5D5D;}
	.st1{fill:#BFBEBF;}
	.st2{fill:#FFFFFF;}
	.st3{fill:#00ADA6;}
	.st4{fill:none;stroke:#00ADA6;stroke-miterlimit:10;}
	.st5{fill:none;stroke:#FFFFFF;stroke-miterlimit:10;}
</style>
<path class="st3" d="M354.5,328.8c-2.6,0-4.8,1-6.6,3.1c-1.8,2-3,5-3.8,8.8l-0.9,4.6c-0.7,3.5-0.4,6.3,1,8.6
	c1.3,2.3,3.2,3.4,5.6,3.4c2.6,0,4.9-1,6.7-3.1c1.8-2,3.1-5,3.9-8.8l0.9-4.6c0.7-3.4,0.3-6.3-1-8.6C358.9,330,357,328.8,354.5,328.8
	 M359.1,340.9l-0.9,4.6c-0.6,3-1.6,5.4-3,7.2c-1.4,1.8-3,2.7-4.9,2.7c-2,0-3.5-0.9-4.4-2.7c-0.9-1.8-1-4.2-0.4-7.4l0.9-4.6
	c0.6-3,1.6-5.3,2.9-7.1c1.4-1.8,3-2.7,4.8-2.7c2.1,0,3.6,0.9,4.5,2.7C359.5,335.3,359.7,337.8,359.1,340.9 M312.7,283
	c-6.9-0.3-12.7-2.8-14.9-8.8c17.3,1.1,40-0.9,40-19.2c0-17.4-14.1-23.6-29.1-23.6c-23.1,0-45.4,18.7-49.9,41.8
	c-4.5,23.1,10.6,41.8,33.6,41.8c28.7,0,47.4-18.5,47.4-40C335,280.6,323.4,283.5,312.7,283 M297.1,263.8c2-13.7,11.9-24.4,14.5-24.4
	c2.9,0,5.1,5.9,4.9,13.7c-0.2,7-5.2,12.1-15.5,12.1c-1.3,0-2.7-0.1-4.1-0.2C297,264.6,297,264.2,297.1,263.8 M330.7,329.2h-2.3
	l-5.5,27.7h12.9l0.4-1.9h-10.6L330.7,329.2z M313.2,329.2h-7.9l-5.5,27.7h2.2l2.3-11.5h5.6c2.3,0,4.3-0.7,5.8-2.1
	c1.5-1.4,2.6-3.4,3.1-6c0.5-2.4,0.2-4.3-0.9-5.8C317,330,315.4,329.2,313.2,329.2 M316.6,337.4c-0.4,1.7-1.1,3.1-2.2,4.3
	c-1.1,1.2-2.5,1.8-4,1.8h-5.6l2.5-12.2h5.6c1.7,0,2.9,0.6,3.4,1.7C316.9,334,317,335.5,316.6,337.4 M352.3,68.9v2
	c-13.6,0-24.6,11-24.6,24.6s11,24.6,24.6,24.6c13.6,0,24.6-11,24.6-24.6c0-17.8-10.9-36.3-39.9-36.3c-37.1,0-61.3,16.5-83.1,79.8h41
	C311.9,83.8,323.3,68.9,352.3,68.9 M345.6,144c-23.1,0-45.4,18.7-49.9,41.8c-4.5,23.1,10.6,41.8,33.6,41.8
	c23.1,0,45.4-18.7,49.9-41.8C383.8,162.7,368.7,144,345.6,144 M343.7,185.1c-5.3,18.3-13.1,33.2-16.3,33.2c-3.2,0-2.5-14.9,2.8-33.2
	c5.3-18.3,13.1-33.2,16.3-33.2C349.6,151.9,348.9,166.8,343.7,185.1 M106.9,135.1c13.6,0,24.6-11,24.6-24.6
	c0-13.6-11-24.6-24.6-24.6c-13.6,0-24.6,11-24.6,24.6C82.3,124.1,93.3,135.1,106.9,135.1 M702.2,185.5l7-31.7H426.8
	c-17.6,0-32.8,12.2-36.7,29.3l-7.3,32l282.5,0C683,215.1,698.4,202.8,702.2,185.5 M150.8,224c10.1-35.2,24-56,29-56
	s-12.9,25.8-12.9,38.5c0,11,8.3,21,20.8,21c12.6,0,32.9-14.8,37.1-30.5H208c9-25.5,15-53-8.2-53c-16,0-30.7,16.4-37.9,28h-1l2.9-14
	c1.8-9.1-3.1-16-15.3-16c-20.3,0-40,36-40,36h20.4c-5.5,7.2-15.4,21.2-23.8,21.2c-3,0-5.4-2.5-5.4-6.2c0-10.4,12.2-22.1,12.2-32.6
	c0-12.5-6.8-18.4-20.1-18.4c-27.3,0-47,30.5-48,36H67c-5.2,9.6-9.1,21.4-9.1,31.5c0,9.2,8.2,18,17.9,18c18.2,0,33.8-12.9,43.2-23.8
	l-7.7,20.3H150.8z M255.3,357h14.1l0.4-1.9H258l2.3-11.5h10.4l0.4-1.9h-10.3l2.1-10.4h11.8l0.4-2h-14L255.3,357z M304.9,160l3.8-12
	h-56.4c0,0,0,0,0,0h-1.4c0,0,0,0,0,0.1c-24.8,1.1-31.8,29.9-31.8,29.9h20.5L212,274.4c-19.4,66-30.2,83.1-61.3,83.1v-2
	c13.6,0,24.6-11,24.6-24.6c0-13.6-11-24.6-24.6-24.6s-24.6,11-24.6,24.6c0,17.8,10.9,36.3,39.9,36.3c39.5,0,64.4-18.8,87.3-92.8
	l27.6-96.5C291.9,177.7,301.6,170.5,304.9,160 M294.2,329.2l-7.6,11.7l-0.1,0l-3.8-11.7H280l5,13.7l-9.6,14.1h2.7l7.8-12.1l0.1,0
	l4,12h2.7l-5.1-14.1l9.3-13.7H294.2z M379.6,329.2H372l-5.5,27.7h2.2l2.5-12.5h5.9c1.4,0,2.4,0.5,3,1.4c0.6,0.9,0.7,2.3,0.4,4.1
	l-0.5,2.5c-0.2,0.9-0.3,1.8-0.3,2.6c0,0.8,0.1,1.4,0.4,1.9h2.3l0.1-0.5c-0.3-0.4-0.5-1-0.5-1.6c0-0.7,0.1-1.4,0.2-2.4l0.5-2.6
	c0.3-1.6,0.3-3-0.1-4.1c-0.4-1.1-1.2-1.9-2.4-2.4c1.3-0.5,2.5-1.3,3.4-2.5c0.9-1.1,1.5-2.5,1.8-4.1c0.5-2.4,0.2-4.3-0.9-5.7
	C383.5,329.9,381.8,329.2,379.6,329.2 M383.1,336.9c-0.3,1.7-1.1,3-2.2,4c-1.1,1-2.5,1.5-4.3,1.5h-5.1l2.2-11.2h5.4
	c1.7,0,2.9,0.5,3.6,1.4C383.4,333.5,383.5,335,383.1,336.9 M673.1,315c23.7,0,37.6-8,37.6-26.2c0-20.4-41.3-35.5-41.3-43.6
	c0-3.7,2.3-5.7,6.1-5.7c14.1,0,20.9,24.1,20.9,24.1s15-2.8,15-13.9c0-11.1-14.5-18.1-30.1-18.1c-22.3,0-39.7,7.9-39.7,23.7
	c0,3.9,1.8,7.6,4.7,11.1c-3.1,2.8-6.9,6.1-11,9c0-0.1,0-0.2,0-0.2c-0.2,0.2-0.5,0.5-0.7,0.7c-2.6,1.8-5.3,3.4-7.8,4.6
	c-5.5,2-12.3,3-18.7,2.7c-6.9-0.3-12.7-2.8-14.9-8.8c17.3,1.1,40-0.9,40-19.2c0-17.4-14.1-23.6-29.1-23.6
	c-23.1,0-45.4,18.7-49.9,41.8c-0.7,3.7-0.9,7.3-0.7,10.8h-11.9c9-25.5,15-53-8.2-53c-16,0-30.7,16.4-37.9,28h-1l2.9-14
	c1.8-9.1-3.1-16-15.3-16c-20.3,0-40,36-40,36h20.4l-17.4,46h39.3c10.1-35.2,24-56,29-56s-12.9,25.8-12.9,38.5c0,11,8.3,21,20.8,21
	c10.4,0,26.2-10.2,33.7-22.6c4.2,13.7,16.5,23.1,32.9,23.1c20.8,0,36.3-9.7,43.3-23.2C639.3,305.3,655.8,315,673.1,315 M680.7,299.9
	c-0.4,3.2-2.4,7.1-6.5,7.1c-9.4,0-15.2-17.8-18.3-31.6C667.6,284.5,681.7,292.5,680.7,299.9 M592.4,263.8
	c2-13.7,11.9-24.4,14.5-24.4c2.9,0,5.1,5.9,4.9,13.7c-0.2,7-5.2,12.1-15.5,12.1c-1.3,0-2.7-0.1-4.1-0.2
	C592.3,264.6,592.4,264.2,592.4,263.8 M390.6,357h14.1l0.4-1.9h-11.9l2.3-11.5h10.4l0.4-1.9h-10.3l2.1-10.4h11.8l0.4-2h-14
	L390.6,357z M640.2,329.2h-6.7l-5.5,27.7h7.8c2.2,0,4.1-0.6,5.6-1.9c1.5-1.2,2.5-3.2,3.1-5.8c0.3-1.7,0.2-3.2-0.4-4.5
	c-0.6-1.3-1.5-2.1-2.8-2.4c1.2-0.4,2.2-1.1,3.1-2.1s1.4-2.3,1.7-3.8c0.5-2.4,0.2-4.2-0.9-5.5C643.9,329.8,642.3,329.2,640.2,329.2
	 M641.8,345.1c0.5,1,0.6,2.4,0.3,4.2c-0.4,1.8-1.1,3.2-2.2,4.2c-1.1,1-2.4,1.5-3.8,1.5h-5.5l2.3-11.4h5.9
	C640.2,343.6,641.2,344.1,641.8,345.1 M643.7,336.5c-0.3,1.6-1,2.9-2,3.8c-1,0.9-2.1,1.4-3.4,1.4h-5.1l2.1-10.4h4.4
	c1.7,0,2.8,0.4,3.5,1.2C643.9,333.3,644.1,334.6,643.7,336.5 M604.9,328.8c-2,0-3.7,0.6-5.2,1.7c-1.4,1.1-2.4,2.7-2.8,4.8
	c-0.5,2.4-0.3,4.2,0.7,5.5c0.9,1.3,2.5,2.4,4.8,3.3c2,1,3.3,1.9,4,2.9c0.6,0.9,0.8,2.2,0.5,3.9c-0.3,1.2-0.9,2.3-2,3.2
	c-1.1,0.9-2.3,1.3-3.6,1.3c-1.7,0-3.1-0.5-4.1-1.4c-1-0.9-1.3-2.6-0.8-5h-2.1l-0.1,0.1c-0.6,2.8-0.2,4.9,1.2,6.3
	c1.4,1.3,3.3,2,5.5,2c2.1,0,3.9-0.5,5.4-1.6c1.5-1.1,2.5-2.7,2.9-4.9c0.5-2.3,0.2-4.1-0.7-5.4c-1-1.3-2.6-2.4-4.8-3.4
	c-2.1-1-3.4-1.9-4-2.8c-0.6-0.9-0.7-2.2-0.4-4c0.2-1.2,0.9-2.3,1.9-3.1c1-0.9,2.1-1.3,3.4-1.3c1.7,0,2.9,0.6,3.7,1.7
	c0.8,1.1,1,2.7,0.6,4.7h2.3c0.5-2.6,0.2-4.7-1-6.2C608.8,329.6,607.1,328.8,604.9,328.8 M658.8,329.2h-2.3L651,357h12.9l0.4-1.9
	h-10.6L658.8,329.2z M582.5,328.8c-2,0-3.7,0.6-5.2,1.7c-1.4,1.1-2.4,2.7-2.8,4.8c-0.5,2.4-0.3,4.2,0.7,5.5c0.9,1.3,2.5,2.4,4.8,3.3
	c2,1,3.3,1.9,4,2.9c0.6,0.9,0.8,2.2,0.5,3.9c-0.3,1.2-0.9,2.3-2,3.2c-1.1,0.9-2.3,1.3-3.6,1.3c-1.7,0-3.1-0.5-4.1-1.4
	c-1-0.9-1.3-2.6-0.8-5h-2.1l-0.1,0.1c-0.6,2.8-0.2,4.9,1.2,6.3c1.4,1.3,3.3,2,5.5,2c2.1,0,3.9-0.5,5.4-1.6c1.5-1.1,2.5-2.7,2.9-4.9
	c0.5-2.3,0.2-4.1-0.7-5.4c-1-1.3-2.6-2.4-4.8-3.4c-2.1-1-3.4-1.9-4-2.8c-0.6-0.9-0.7-2.2-0.4-4c0.2-1.2,0.9-2.3,1.9-3.1
	c1-0.9,2.1-1.3,3.4-1.3c1.7,0,2.9,0.6,3.7,1.7c0.8,1.1,1,2.7,0.6,4.7h2.3c0.5-2.6,0.2-4.7-1-6.2
	C586.4,329.6,584.7,328.8,582.5,328.8 M704.5,328.8c-2,0-3.7,0.6-5.2,1.7c-1.4,1.1-2.4,2.7-2.8,4.8c-0.5,2.4-0.3,4.2,0.7,5.5
	c0.9,1.3,2.5,2.4,4.8,3.3c2,1,3.3,1.9,4,2.9c0.6,0.9,0.8,2.2,0.5,3.9c-0.3,1.2-0.9,2.3-2,3.2c-1.1,0.9-2.3,1.3-3.6,1.3
	c-1.7,0-3.1-0.5-4.1-1.4c-1-0.9-1.3-2.6-0.8-5h-2.1l-0.1,0.1c-0.6,2.8-0.2,4.9,1.2,6.3c1.4,1.3,3.3,2,5.5,2c2.1,0,3.9-0.5,5.4-1.6
	c1.5-1.1,2.5-2.7,2.9-4.9c0.5-2.3,0.2-4.1-0.7-5.4c-1-1.3-2.6-2.4-4.8-3.4c-2.1-1-3.4-1.9-4-2.8c-0.6-0.9-0.7-2.2-0.4-4
	c0.2-1.2,0.9-2.3,1.9-3.1c1-0.9,2.1-1.3,3.4-1.3c1.7,0,2.9,0.6,3.7,1.7c0.8,1.1,1,2.7,0.6,4.7h2.3c0.5-2.6,0.2-4.7-1-6.2
	C708.4,329.6,706.7,328.8,704.5,328.8 M671.2,357h14.1l0.4-1.9h-11.9l2.3-11.5h10.4l0.4-1.9h-10.3l2.1-10.4h11.8l0.4-2h-14
	L671.2,357z M615.9,357h2.3l5.5-27.7h-2.3L615.9,357z M434.3,278.4l17.4-46h-39.3c-10.1,35.2-24,56-29,56s12.9-25.8,12.9-38.5
	c0-11-8.3-21-20.8-21c-12.6,0-32.9,14.8-37.1,30.5h16.8c-9,25.5-15,53,8.2,53c16,0,30.7-16.4,37.9-28h1l-2.9,14
	c-1.8,9.1,3.1,16,15.3,16c20.3,0,40-36,40-36H434.3z M455.5,329.2h-2.3l-5.5,27.7h12.9l0.4-1.9h-10.6L455.5,329.2z M425.3,329.2
	h-7.6l-5.5,27.7h2.2l2.5-12.5h5.9c1.4,0,2.4,0.5,3,1.4c0.6,0.9,0.7,2.3,0.4,4.1l-0.5,2.5c-0.2,0.9-0.3,1.8-0.3,2.6
	c0,0.8,0.1,1.4,0.4,1.9h2.3l0.1-0.5c-0.3-0.4-0.4-1-0.5-1.6c0-0.7,0.1-1.4,0.2-2.4l0.5-2.6c0.3-1.6,0.3-3-0.1-4.1
	c-0.4-1.1-1.2-1.9-2.4-2.4c1.3-0.5,2.5-1.3,3.4-2.5s1.5-2.5,1.8-4.1c0.5-2.4,0.2-4.3-0.9-5.7C429.2,329.9,427.5,329.2,425.3,329.2
	 M428.9,336.9c-0.3,1.7-1.1,3-2.2,4c-1.1,1-2.5,1.5-4.3,1.5h-5.1l2.2-11.2h5.4c1.7,0,2.9,0.5,3.6,1.4
	C429.1,333.5,429.3,335,428.9,336.9 M558.9,328.8c-2.6,0-4.8,1-6.6,3.1c-1.8,2-3,5-3.8,8.8l-0.9,4.6c-0.7,3.5-0.4,6.3,1,8.6
	c1.3,2.3,3.2,3.4,5.6,3.4c2.6,0,4.9-1,6.7-3.1c1.8-2,3.1-5,3.9-8.8l0.9-4.6c0.7-3.4,0.3-6.3-1-8.6
	C563.3,330,561.4,328.8,558.9,328.8 M563.5,340.9l-0.9,4.6c-0.6,3-1.6,5.4-3,7.2c-1.4,1.8-3.1,2.7-4.9,2.7c-2,0-3.5-0.9-4.4-2.7
	c-0.9-1.8-1-4.2-0.4-7.4l0.9-4.6c0.6-3,1.6-5.3,2.9-7.1c1.4-1.8,3-2.7,4.8-2.7c2.1,0,3.6,0.9,4.5,2.7
	C563.9,335.3,564.1,337.8,563.5,340.9 M467.8,357H482l0.4-1.9h-11.9l2.3-11.5h10.4l0.4-1.9h-10.3l2.1-10.4H487l0.4-2h-14L467.8,357z
	 M536.6,329.2h-7.9l-5.5,27.7h2.2l2.3-11.5h5.6c2.3,0,4.3-0.7,5.8-2.1c1.5-1.4,2.6-3.4,3.1-6c0.5-2.4,0.2-4.3-0.9-5.8
	C540.3,330,538.7,329.2,536.6,329.2 M540,337.4c-0.4,1.7-1.1,3.1-2.2,4.3c-1.1,1.2-2.5,1.8-4,1.8h-5.6l2.5-12.2h5.6
	c1.7,0,2.9,0.6,3.4,1.7C540.2,334,540.4,335.5,540,337.4 M501.1,328.8c-2,0-3.7,0.6-5.2,1.7c-1.4,1.1-2.4,2.7-2.8,4.8
	c-0.5,2.4-0.3,4.2,0.7,5.5c0.9,1.3,2.5,2.4,4.8,3.3c2,1,3.3,1.9,4,2.9c0.6,0.9,0.8,2.2,0.5,3.9c-0.3,1.2-0.9,2.3-2,3.2
	c-1.1,0.9-2.3,1.3-3.6,1.3c-1.7,0-3.1-0.5-4.1-1.4c-1-0.9-1.3-2.6-0.8-5h-2.1l-0.1,0.1c-0.6,2.8-0.2,4.9,1.2,6.3
	c1.4,1.3,3.3,2,5.5,2c2.1,0,3.9-0.5,5.4-1.6c1.5-1.1,2.5-2.7,2.9-4.9c0.5-2.3,0.2-4.1-0.7-5.4c-1-1.3-2.6-2.4-4.8-3.4
	c-2.1-1-3.4-1.9-4-2.8c-0.6-0.9-0.7-2.2-0.4-4c0.2-1.2,0.9-2.3,1.9-3.1c1-0.9,2.1-1.3,3.4-1.3c1.7,0,2.9,0.6,3.7,1.7
	c0.8,1.1,1,2.7,0.6,4.7h2.3c0.5-2.6,0.2-4.7-1-6.2C505,329.6,503.3,328.8,501.1,328.8"/>
<g>
	<path class="st2" d="M504.8,183.4l5.7-11.4h5.7l-9.6,16.6l-1.6,9h-5.1l1.7-9.5l-3.8-16h5.3L504.8,183.4z"/>
	<path class="st2" d="M522,197.9c-1.5,0-2.8-0.4-3.9-1.1s-1.8-1.8-2.3-3.1s-0.6-2.8-0.4-4.5l0.2-1.3c0.4-3.2,1.3-5.6,2.9-7.2
		s3.5-2.5,5.8-2.4c1.7,0,3.1,0.6,4.1,1.6s1.6,2.5,1.7,4.4c0.1,1.1,0.1,2.2-0.1,3.3l-0.3,2.3h-9.5c-0.1,0.5-0.1,1-0.1,1.5
		c0.1,1.7,0.9,2.5,2.5,2.6c1.5,0,2.9-0.5,4.3-1.7l1.6,3c-0.6,0.9-1.5,1.6-2.7,2.1S523.4,197.9,522,197.9z M523.8,182.3
		c-1.4-0.1-2.4,0.8-2.9,2.7l-0.4,1.3l4.8,0c0.1-0.7,0.2-1.2,0.2-1.7C525.6,183.1,525,182.3,523.8,182.3z"/>
	<path class="st2" d="M539.1,178.5l-0.4,1.9c1.3-1.6,2.8-2.3,4.4-2.3c1.3,0,2.4,0.5,3,1.5s1,2.4,1,4.2l-0.1,1.6l-2,12.1h-4.9l2-12.1
		l0.1-1c0-1.4-0.5-2.1-1.5-2.1c-0.5,0-0.9,0.1-1.3,0.4s-0.7,0.6-1,1l-2.4,13.8h-4.9l3.3-19L539.1,178.5z"/>
	<path class="st2" d="M556.9,178.5l-0.4,1.9c1.3-1.6,2.8-2.3,4.4-2.3c1.3,0,2.4,0.5,3,1.5s1,2.4,1,4.2l-0.1,1.6l-2,12.1H558l2-12.1
		l0.1-1c0-1.4-0.5-2.1-1.5-2.1c-0.5,0-0.9,0.1-1.3,0.4s-0.7,0.6-1,1l-2.4,13.8H549l3.3-19L556.9,178.5z"/>
	<path class="st2" d="M574.7,197.9c-1.5,0-2.8-0.4-3.9-1.1s-1.8-1.8-2.3-3.1s-0.6-2.8-0.4-4.5l0.2-1.3c0.4-3.2,1.3-5.6,2.9-7.2
		s3.5-2.5,5.8-2.4c1.7,0,3.1,0.6,4.1,1.6s1.6,2.5,1.7,4.4c0.1,1.1,0.1,2.2-0.1,3.3l-0.3,2.3h-9.5c-0.1,0.5-0.1,1-0.1,1.5
		c0.1,1.7,0.9,2.5,2.5,2.6c1.5,0,2.9-0.5,4.3-1.7l1.6,3c-0.6,0.9-1.5,1.6-2.7,2.1S576.1,197.9,574.7,197.9z M576.5,182.3
		c-1.4-0.1-2.4,0.8-2.9,2.7l-0.4,1.3l4.8,0c0.1-0.7,0.2-1.2,0.2-1.7C578.3,183.1,577.7,182.3,576.5,182.3z"/>
</g>
</svg>
