<?xml version="1.0" encoding="utf-8"?>
<!-- Generator: Adobe Illustrator 26.5.0, SVG Export Plug-In . SVG Version: 6.00 Build 0)  -->
<svg version="1.1" id="Calque_1" xmlns="http://www.w3.org/2000/svg" xmlns:xlink="http://www.w3.org/1999/xlink" x="0px" y="0px"
	 viewBox="0 0 415.5 421.9" style="enable-background:new 0 0 415.5 421.9;" xml:space="preserve">
<style type="text/css">
	.st0{fill:#5D5D5D;}
	.st1{fill:#BFBEBF;}
	.st2{fill:#FFFFFF;}
	.st3{fill:#00ADA6;}
	.st4{fill:none;stroke:#00ADA6;stroke-miterlimit:10;}
	.st5{fill:none;stroke:#FFFFFF;stroke-miterlimit:10;}
</style>
<g>
	<path class="st3" d="M246.8,135.2c-29.2,0-37.3,33.7-37.3,33.7h26.3l-14.9,51.2c-21.8,74.1-33.9,93.3-68.8,93.3v-2.2
		c15.2,0,27.6-12.3,27.6-27.6c0-15.2-12.3-27.6-27.6-27.6c-15.2,0-27.6,12.3-27.6,27.6c0,20,12.3,40.8,44.8,40.8
		c44.4,0,72.3-21.1,98-104.2l14.9-51.2h2.9c12.6,0,23.8-8.2,27.6-20.2l4.3-13.5H246.8z"/>
</g>
<g>
	<path class="st3" d="M139.7,226.3c0,10.4,9.2,20.2,20.1,20.2c22.7,0,44.3-23.5,54.1-36.4c0,0-9.6,0-19.1,0c-3.4,0-6.1-2.8-6.1-7
		c0-11.6,13.7-24.9,13.7-36.7c0-14.1-7.7-20.7-22.5-20.7c-30.7,0-52.8,34.2-53.8,40.5c8.3,0,19,0,26.1,0
		C145.6,198.4,139.7,214.7,139.7,226.3z"/>
</g>
<g>
	<path class="st3" d="M196.9,138.1c15.2,0,27.6-12.3,27.6-27.6s-12.3-27.6-27.6-27.6c-15.2,0-27.6,12.3-27.6,27.6
		S181.7,138.1,196.9,138.1z"/>
</g>
<g>
	<path class="st3" d="M80.1,325.1l-4-4.6l-4.6,4l4.7,5.4l-1.4,1.2l-6.1-7l13-11.4l6.1,6.9l-1.4,1.2l-4.6-5.3l-4.2,3.7l4,4.6
		L80.1,325.1z"/>
	<path class="st3" d="M89.5,330.7l6.9-2.5l1.8,1.8l-9.2,3.1l-2.7,9.5l-1.9-1.8l2.3-7.2l-7.1,2.6l-1.9-1.8l9.4-3.1l2.7-9.3l1.8,1.8
		L89.5,330.7z"/>
	<path class="st3" d="M96.3,342.1l-4.2,5.3l-1.7-1.4l10.8-13.5l4.3,3.4c1.3,1,1.9,2.2,2.1,3.5c0.1,1.3-0.3,2.6-1.3,3.9
		c-1,1.3-2.2,2-3.4,2.2c-1.2,0.2-2.5-0.2-3.8-1.2L96.3,342.1z M97.5,340.6l2.6,2.1c0.8,0.6,1.5,0.8,2.3,0.7s1.5-0.6,2.2-1.5
		c0.6-0.8,1-1.6,0.9-2.5c0-0.8-0.4-1.5-1.1-2.1l-2.6-2.1L97.5,340.6z"/>
	<path class="st3" d="M106.1,355.5l5.7,3.8l-1,1.6l-7.5-5l9.6-14.4l1.8,1.2L106.1,355.5z"/>
	<path class="st3" d="M127.9,362.4c-1.1,2.1-2.5,3.4-4,4.1c-1.5,0.6-3.1,0.5-4.7-0.4c-1.6-0.9-2.5-2.1-2.8-3.7
		c-0.3-1.6,0.1-3.4,1.1-5.4l1.6-2.9c1.1-2,2.4-3.4,4-4c1.5-0.7,3.1-0.5,4.7,0.3c1.6,0.9,2.5,2.1,2.8,3.7c0.3,1.6-0.1,3.4-1.2,5.5
		L127.9,362.4z M127.5,358.7c0.9-1.6,1.3-2.9,1.2-4c-0.1-1.1-0.7-1.9-1.8-2.5c-1-0.6-2.1-0.6-3-0.1c-1,0.5-1.9,1.5-2.7,3.1l-1.5,2.7
		c-0.9,1.5-1.2,2.9-1.1,4s0.7,2,1.7,2.5c1.1,0.6,2.1,0.6,3,0.2c0.9-0.5,1.8-1.5,2.7-3L127.5,358.7z"/>
	<path class="st3" d="M137.6,366.9l-2.8-1.2l-2.8,6.4l-2-0.9l6.9-15.9l4.5,1.9c1.6,0.7,2.6,1.6,3,2.8s0.3,2.5-0.3,4.1
		c-0.4,1-1,1.7-1.8,2.3c-0.8,0.5-1.6,0.8-2.6,0.9l0.1,8.1l-0.1,0.1l-2.2-0.9L137.6,366.9z M135.5,364l2.4,1.1
		c0.8,0.4,1.6,0.4,2.4,0.1c0.7-0.3,1.3-0.9,1.7-1.8c0.9-2,0.4-3.5-1.4-4.3l-2.4-1L135.5,364z"/>
	<path class="st3" d="M154.9,372.3l-5.8-1.9l-1.9,5.8l6.8,2.3l-0.6,1.8l-8.8-3l5.5-16.4l8.7,2.9l-0.6,1.8l-6.7-2.2l-1.8,5.3l5.8,1.9
		L154.9,372.3z"/>
	<path class="st3" d="M165.3,376.1l-3-0.7l-1.6,6.8l-2.1-0.5l4.1-16.8l4.7,1.1c1.7,0.4,2.8,1.1,3.4,2.2c0.6,1.1,0.8,2.4,0.4,4.1
		c-0.3,1-0.7,1.9-1.3,2.6c-0.6,0.7-1.4,1.1-2.4,1.3l1.5,7.9l0,0.1l-2.3-0.5L165.3,376.1z M162.8,373.6l2.6,0.6
		c0.9,0.2,1.7,0.1,2.3-0.3c0.7-0.4,1.1-1.1,1.3-2.1c0.5-2.2-0.2-3.5-2.2-4l-2.5-0.6L162.8,373.6z"/>
	<path class="st3" d="M184,384.6l6.8,0.7l-0.2,1.9l-8.9-1l1.9-17.2l2.2,0.2L184,384.6z"/>
	<path class="st3" d="M204.3,379.8l-6.1-0.2l-0.2,6.1l7.1,0.2l-0.1,1.9l-9.3-0.3l0.5-17.3l9.2,0.3l-0.1,1.9l-7-0.2l-0.2,5.6l6.1,0.2
		L204.3,379.8z"/>
	<path class="st3" d="M217.9,382.9c0-0.9-0.3-1.5-0.8-1.9c-0.5-0.4-1.4-0.8-2.6-1.2c-1.2-0.4-2.2-0.8-2.9-1.2s-1.2-1-1.5-1.6
		c-0.4-0.6-0.6-1.3-0.6-2.1c-0.1-1.4,0.3-2.5,1.2-3.5s2-1.4,3.5-1.5c1-0.1,1.9,0.1,2.7,0.5c0.8,0.4,1.5,1,1.9,1.8
		c0.5,0.8,0.7,1.7,0.8,2.6l-2.2,0.1c-0.1-1.1-0.4-1.9-0.9-2.4c-0.5-0.6-1.3-0.8-2.3-0.8c-0.9,0-1.5,0.3-2,0.9s-0.7,1.2-0.6,2.1
		c0,0.7,0.3,1.3,0.9,1.8c0.5,0.5,1.4,0.9,2.5,1.2c1.7,0.5,3,1.1,3.8,1.9c0.8,0.8,1.2,1.8,1.3,3.2c0.1,1.4-0.3,2.5-1.2,3.4
		s-2.1,1.4-3.6,1.5c-1,0.1-1.9-0.1-2.8-0.5c-0.9-0.4-1.6-1-2.1-1.7c-0.5-0.8-0.8-1.7-0.9-2.7l2.2-0.1c0.1,1.1,0.4,1.9,1,2.4
		c0.6,0.6,1.5,0.8,2.5,0.8c1-0.1,1.7-0.3,2.1-0.9C217.7,384.4,217.9,383.8,217.9,382.9z"/>
	<path class="st3" d="M234.6,378.4l1.3,6.7l-2.1,0.4l-3.2-17l5.4-1c1.6-0.3,2.9-0.1,4,0.7c1.1,0.8,1.8,2,2.1,3.5
		c0.3,1.6,0.1,3-0.6,4s-1.8,1.7-3.4,2.1L234.6,378.4z M234.2,376.6l3.3-0.6c1-0.2,1.6-0.6,2-1.3s0.5-1.5,0.3-2.6
		c-0.2-1-0.6-1.8-1.2-2.3c-0.6-0.5-1.4-0.7-2.3-0.5l-3.3,0.6L234.2,376.6z"/>
	<path class="st3" d="M258.5,372.2c0.7,2.3,0.7,4.2,0.1,5.7c-0.6,1.5-1.8,2.5-3.6,3c-1.7,0.5-3.2,0.3-4.6-0.6
		c-1.3-0.9-2.3-2.4-3-4.6l-0.9-3.1c-0.6-2.2-0.7-4.1,0-5.7c0.6-1.5,1.8-2.6,3.6-3.1c1.8-0.5,3.3-0.3,4.6,0.6c1.3,0.9,2.3,2.5,3,4.7
		L258.5,372.2z M255.5,369.9c-0.5-1.8-1.2-3-2-3.7c-0.8-0.7-1.8-0.9-3-0.5c-1.2,0.3-1.9,1-2.2,2.1c-0.3,1-0.3,2.4,0.2,4.1l0.9,3
		c0.5,1.7,1.2,2.9,2,3.6c0.8,0.7,1.9,0.9,3,0.6c1.2-0.3,1.9-1,2.2-2c0.3-1,0.3-2.3-0.2-4L255.5,369.9z"/>
	<path class="st3" d="M271.7,370.2c-0.3-0.8-0.8-1.3-1.4-1.6c-0.6-0.3-1.6-0.4-2.9-0.3c-1.3,0-2.3,0-3.1-0.2c-0.8-0.2-1.4-0.5-2-1
		s-0.9-1-1.2-1.8c-0.5-1.3-0.5-2.5,0-3.7c0.5-1.2,1.5-2,2.9-2.6c0.9-0.4,1.9-0.5,2.8-0.4c0.9,0.1,1.7,0.5,2.4,1.1
		c0.7,0.6,1.2,1.3,1.6,2.2l-2,0.8c-0.4-1-0.9-1.7-1.6-2c-0.7-0.4-1.5-0.4-2.4,0c-0.8,0.3-1.4,0.8-1.6,1.4s-0.2,1.4,0.1,2.2
		c0.3,0.7,0.7,1.2,1.4,1.4c0.7,0.3,1.6,0.4,2.7,0.3c1.8-0.1,3.2,0.1,4.2,0.6c1,0.5,1.7,1.4,2.2,2.6c0.5,1.3,0.5,2.5,0,3.6
		c-0.5,1.1-1.5,2-3,2.5c-0.9,0.4-1.9,0.5-2.8,0.4s-1.8-0.4-2.6-1c-0.7-0.6-1.3-1.3-1.7-2.3l2-0.8c0.4,1,1,1.7,1.8,2
		c0.8,0.3,1.6,0.3,2.6-0.1c0.9-0.4,1.5-0.8,1.7-1.5S272,370.9,271.7,370.2z"/>
	<path class="st3" d="M285.2,363.8c-0.4-0.8-0.9-1.3-1.5-1.5s-1.6-0.2-2.9-0.1s-2.3,0.2-3.1,0c-0.8-0.1-1.5-0.4-2-0.8
		c-0.6-0.4-1-1-1.4-1.7c-0.6-1.2-0.7-2.4-0.3-3.6c0.4-1.2,1.3-2.1,2.6-2.8c0.9-0.5,1.8-0.7,2.7-0.6c0.9,0.1,1.7,0.3,2.5,0.9
		c0.7,0.5,1.3,1.2,1.8,2.1l-2,1c-0.5-1-1.1-1.6-1.8-1.9c-0.7-0.3-1.5-0.2-2.4,0.2c-0.8,0.4-1.3,0.9-1.5,1.6
		c-0.2,0.7-0.1,1.4,0.3,2.2c0.3,0.7,0.8,1.1,1.5,1.3s1.6,0.2,2.8,0.1c1.8-0.3,3.2-0.2,4.2,0.2s1.8,1.2,2.4,2.4
		c0.6,1.3,0.7,2.5,0.3,3.6c-0.4,1.2-1.4,2.1-2.8,2.8c-0.9,0.5-1.8,0.7-2.8,0.7c-1,0-1.8-0.3-2.6-0.8s-1.4-1.2-1.9-2.1l2-1
		c0.5,1,1.1,1.6,1.9,1.8c0.8,0.3,1.7,0.2,2.6-0.3c0.9-0.4,1.4-1,1.6-1.6C285.7,365.3,285.6,364.6,285.2,363.8z"/>
	<path class="st3" d="M295.8,362.9l-1.9,1.1l-8.7-15l1.9-1.1L295.8,362.9z"/>
	<path class="st3" d="M301.2,359.7l-9.8-14.3l4.1-2.8c1.3-0.9,2.5-1.2,3.6-1.1c1.1,0.2,2.1,0.9,2.9,2.2c0.5,0.7,0.7,1.4,0.7,2.1
		c0,0.7-0.2,1.4-0.5,2.1c0.8-0.2,1.6-0.2,2.4,0.1c0.8,0.3,1.5,1,2.1,1.8c0.9,1.3,1.2,2.5,1,3.7c-0.2,1.2-1,2.3-2.3,3.2L301.2,359.7z
		 M297.4,350.2l2.3-1.6c0.6-0.4,1-1,1.1-1.7c0.1-0.7-0.1-1.4-0.6-2.1c-0.5-0.8-1.1-1.2-1.7-1.4c-0.6-0.1-1.2,0.1-2,0.5l-2.3,1.6
		L297.4,350.2z M298.4,351.7l3.5,5.2l2.5-1.7c0.7-0.5,1.1-1.1,1.2-1.8c0.1-0.7-0.1-1.5-0.7-2.3c-1.2-1.7-2.5-2.1-3.9-1.1
		L298.4,351.7z"/>
	<path class="st3" d="M314.8,347.6l5.3-4.3l1.2,1.4l-7,5.7L303.3,337l1.7-1.4L314.8,347.6z"/>
	<path class="st3" d="M325.6,329.7l-4.4,4.2l4.3,4.4l5.1-4.9l1.3,1.3l-6.7,6.5l-12-12.5l6.6-6.4l1.3,1.3l-5.1,4.9l3.9,4l4.4-4.2
		L325.6,329.7z"/>
	<path class="st3" d="M337.3,322.2c-0.6-0.6-1.3-0.8-2-0.8c-0.7,0-1.5,0.4-2.7,1c-1.1,0.6-2.1,1-2.9,1.2c-0.8,0.2-1.5,0.2-2.2,0
		c-0.7-0.2-1.3-0.5-1.9-1c-1-0.9-1.6-2-1.6-3.3c-0.1-1.3,0.4-2.5,1.4-3.6c0.7-0.8,1.4-1.3,2.3-1.6s1.7-0.3,2.6-0.1
		c0.9,0.2,1.7,0.6,2.4,1.3l-1.4,1.6c-0.8-0.7-1.6-1.1-2.4-1.1c-0.8,0-1.5,0.4-2.1,1.1c-0.6,0.7-0.8,1.3-0.8,2s0.4,1.3,1.1,1.9
		c0.5,0.5,1.2,0.7,1.9,0.6s1.6-0.4,2.6-1c1.5-0.9,2.9-1.4,4-1.4c1.1,0,2.2,0.4,3.2,1.3c1.1,0.9,1.6,2,1.6,3.3c0,1.2-0.5,2.5-1.5,3.6
		c-0.7,0.8-1.4,1.3-2.3,1.7c-0.9,0.3-1.8,0.4-2.7,0.3c-0.9-0.2-1.8-0.6-2.5-1.3l1.4-1.6c0.8,0.7,1.6,1,2.5,1
		c0.8-0.1,1.6-0.5,2.3-1.2c0.6-0.7,0.9-1.4,0.9-2.1C338.3,323.4,337.9,322.8,337.3,322.2z"/>
</g>
<g>
	<path class="st3" d="M167.5,49.1l2-12l3.1-0.7l-3.1,15.2l1.9,8.2l-2.8,0.6l-1.9-8.2l-9.4-12.4l3.1-0.7L167.5,49.1z"/>
	<path class="st3" d="M190.1,46.3l-7.9,0.9l0.9,7.9l9.2-1.1l0.3,2.4l-12,1.4l-2.7-22.4l11.9-1.4l0.3,2.4l-9.1,1.1l0.9,7.2l7.9-0.9
		L190.1,46.3z"/>
	<path class="st3" d="M211,56l-2.8,0l-9.3-17.2l0.3,17.4l-2.8,0L196,33.7l2.8,0l9.3,17.3l-0.3-17.4l2.8,0L211,56z"/>
	<path class="st3" d="M230.4,57.9l-2.8-0.3l-7-18.3l-2,17.2l-2.8-0.3l2.5-22.4l2.8,0.3l7,18.3l2-17.3l2.8,0.3L230.4,57.9z"/>
	<path class="st3" d="M248.1,51.1l-7.8-1.8l-1.8,7.8l9,2.1l-0.5,2.4l-11.8-2.7l5-22l11.7,2.7l-0.5,2.4l-8.9-2l-1.6,7.1l7.8,1.8
		L248.1,51.1z"/>
</g>
<g>
	<g>
		<path class="st3" d="M340.8,307l-1-0.7c19-28.6,29-62.1,29-96.9c0-49-20.4-95.8-55.9-128.5l0.8-0.9
			c35.8,32.9,56.3,80.1,56.3,129.4C370,244.4,359.9,278.2,340.8,307"/>
	</g>
	<g>
		<path class="st3" d="M63,306.1c-18.9-28.7-28.9-62.4-28.9-97.2c0-49.7,20.8-97.1,57.1-130.1l0.8,0.9
			c-36,32.8-56.7,79.9-56.7,129.2c0,34.6,9.9,68,28.7,96.5L63,306.1z"/>
	</g>
</g>
</svg>
